<svg xmlns="http://www.w3.org/2000/svg" viewBox="0 0 64 64" fill="none">
  <rect width="64" height="64" rx="14" fill="#0d1117"/>
  <g transform="translate(12, 8)" stroke="#f0f6fc" stroke-width="2.5" stroke-linecap="round" stroke-linejoin="round" fill="none">
    <!-- Cup body -->
    <path d="M 6 22 L 10 48 L 30 48 L 34 22"/>
    <!-- Lid -->
    <path d="M 2 18 L 38 18 C 38 18 38 22 20 22 C 2 22 2 18 2 18"/>
    <!-- Dome -->
    <path d="M 8 18 C 8 10 14 4 20 4 C 26 4 32 10 32 18"/>
    <!-- Straw -->
    <line x1="24" y1="4" x2="34" y2="-6" stroke-width="2.5"/>
    <line x1="34" y1="-6" x2="38" y2="-6" stroke-width="2.5"/>
    <!-- Drips -->
    <path d="M 13 22 C 13 26 17 26 17 22" opacity="0.5" stroke-width="2"/>
    <path d="M 23 22 C 23 26 27 26 27 22" opacity="0.5" stroke-width="2"/>
  </g>
</svg>
